<svg width="71" height="36" viewBox="0 0 71 36" fill="none" xmlns="http://www.w3.org/2000/svg">
<path d="M18 36C27.9411 36 36 27.9411 36 18C36 8.05887 27.9411 0 18 0V36Z" fill="#DDDDFB"/>
<path d="M18 30C24.6274 30 30 24.6274 30 18C30 11.3726 24.6274 6 18 6V30Z" fill="#ACADF8"/>
<path d="M18 24C21.3137 24 24 21.3137 24 18C24 14.6863 21.3137 12 18 12V24Z" fill="#5C20F4"/>
<path d="M18 3.8147e-06C8.05888 2.94562e-06 4.35004e-06 8.05887 3.48096e-06 18C2.61188e-06 27.9411 8.05888 36 18 36L18 3.8147e-06Z" fill="#F7D7DF"/>
<path d="M18 5.99999C11.3726 5.99999 6 11.3726 6 18C6 24.6274 11.3726 30 18 30L18 5.99999Z" fill="#F0A1B5"/>
<path d="M18 12C14.6863 12 12 14.6863 12 18C12 21.3137 14.6863 24 18 24L18 12Z" fill="#EA4869"/>
<path d="M70.8854 27.2072H66.9776V23.2141C66.9776 20.8552 65.1094 18.8704 62.7409 18.8183C60.3057 18.7615 58.3041 20.7178 58.3041 23.1288V27.2072H54.3962V23.2425C54.3962 18.6431 58.1611 14.8536 62.7886 14.9389C67.2683 15.0194 70.8854 18.662 70.8854 23.1336V27.2072Z" fill="#F5F5F5"/>
<path d="M45.7247 9.20312H41.8169V27.2029H45.7247V9.20312Z" fill="#F5F5F5"/>
<path d="M52.0283 15.1484H48.1205V27.2036H52.0283V15.1484Z" fill="#F5F5F5"/>
<path d="M50.0745 13.0873C51.1536 13.0873 52.0284 12.2178 52.0284 11.1452C52.0284 10.0726 51.1536 9.20312 50.0745 9.20312C48.9954 9.20312 48.1206 10.0726 48.1206 11.1452C48.1206 12.2178 48.9954 13.0873 50.0745 13.0873Z" fill="#F5F5F5"/>
</svg>
