<svg width="48" height="48" viewBox="0 0 48 48" fill="none" xmlns="http://www.w3.org/2000/svg">
<circle cx="24" cy="24" r="24" fill="#DDDDFB"/>
<rect x="6.25" y="11.25" width="35.5" height="24.5435" rx="3.75" fill="white" stroke="#6A6B99" stroke-width="0.5"/>
<path d="M13.8121 28.9914C13.875 28.9285 13.9903 28.9285 14.0531 28.9914L14.6087 29.5469L15.1537 28.9914C15.2166 28.9285 15.3319 28.9285 15.3948 28.9914C15.4577 29.0543 15.4577 29.1696 15.3948 29.2325L14.8392 29.7775L15.3948 30.333C15.4577 30.3959 15.4577 30.5112 15.3948 30.5741C15.3319 30.637 15.2166 30.637 15.1537 30.5741L14.6087 30.0186L14.0531 30.5741C13.9903 30.637 13.875 30.637 13.8121 30.5741C13.7492 30.5112 13.7492 30.3959 13.8121 30.333L14.3676 29.7775L13.8121 29.2325C13.7492 29.1696 13.7492 29.0543 13.8121 28.9914ZM12.2608 28.1005C12.2608 27.7336 12.5543 27.4297 12.9316 27.4297H16.2857C16.6525 27.4297 16.9565 27.7336 16.9565 28.1005V31.4545C16.9565 31.8319 16.6525 32.1253 16.2857 32.1253H12.9316C12.5543 32.1253 12.2608 31.8319 12.2608 31.4545V28.1005ZM12.5962 28.1005V31.4545C12.5962 31.6432 12.743 31.7899 12.9316 31.7899H16.2857C16.4639 31.7899 16.6211 31.6432 16.6211 31.4545V28.1005C16.6211 27.9223 16.4639 27.7651 16.2857 27.7651H12.9316C12.743 27.7651 12.5962 27.9223 12.5962 28.1005Z" fill="#6A6B99"/>
<path d="M14.3886 24.3163C14.3257 24.3792 14.2104 24.3792 14.1475 24.3163L13.4767 23.6455C13.4138 23.5826 13.4138 23.4673 13.4767 23.4044C13.5396 23.3415 13.6549 23.3415 13.7177 23.4044L14.2733 23.9599L15.4891 22.7336C15.552 22.6707 15.6673 22.6707 15.7302 22.7336C15.7931 22.7965 15.7931 22.9118 15.7302 22.9747L14.3886 24.3163ZM12.2608 21.8427C12.2608 21.4758 12.5543 21.1719 12.9316 21.1719H16.2857C16.6525 21.1719 16.9565 21.4758 16.9565 21.8427V25.1967C16.9565 25.574 16.6525 25.8675 16.2857 25.8675H12.9316C12.5543 25.8675 12.2608 25.574 12.2608 25.1967V21.8427ZM12.5962 21.8427V25.1967C12.5962 25.3854 12.743 25.5321 12.9316 25.5321H16.2857C16.4639 25.5321 16.6211 25.3854 16.6211 25.1967V21.8427C16.6211 21.6645 16.4639 21.5073 16.2857 21.5073H12.9316C12.743 21.5073 12.5962 21.6645 12.5962 21.8427Z" fill="#6A6B99"/>
<path d="M14.3886 18.0585C14.3257 18.1214 14.2104 18.1214 14.1475 18.0585L13.4767 17.3877C13.4138 17.3248 13.4138 17.2095 13.4767 17.1466C13.5396 17.0837 13.6549 17.0837 13.7177 17.1466L14.2733 17.7021L15.4891 16.4758C15.552 16.4129 15.6673 16.4129 15.7302 16.4758C15.7931 16.5387 15.7931 16.654 15.7302 16.7169L14.3886 18.0585ZM12.2608 15.5849C12.2608 15.218 12.5543 14.9141 12.9316 14.9141H16.2857C16.6525 14.9141 16.9565 15.218 16.9565 15.5849V18.9389C16.9565 19.3162 16.6525 19.6097 16.2857 19.6097H12.9316C12.5543 19.6097 12.2608 19.3162 12.2608 18.9389V15.5849ZM12.5962 15.5849V18.9389C12.5962 19.1276 12.743 19.2743 12.9316 19.2743H16.2857C16.4639 19.2743 16.6211 19.1276 16.6211 18.9389V15.5849C16.6211 15.4067 16.4639 15.2495 16.2857 15.2495H12.9316C12.743 15.2495 12.5962 15.4067 12.5962 15.5849Z" fill="#6A6B99"/>
<path d="M19.3044 16.0859H35.7391M19.3044 18.4338H35.7391M19.3044 22.3468H35.7391M19.3044 24.6946H35.7391M19.3044 28.6077H35.7391M19.3044 30.9555H35.7391" stroke="#6A6B99" stroke-width="0.5" stroke-linecap="round"/>
</svg>
